<svg id="Capa_1" data-name="Capa 1" xmlns="http://www.w3.org/2000/svg" width="330.3427" height="67.9149" viewBox="0 0 330.3427 67.9149"><defs><style>.cls-1{fill:#fff;}.cls-2{fill:#5db7de;}</style></defs><path class="cls-1" d="M90.9155,33.3877h9.2471V58.7471h15.5986v7.332H90.9155Z" transform="translate(-12.8379 -13.4993)"/><path class="cls-1" d="M139.5088,43.2183q3.315,2.8725,3.3154,8.8037V66.0791h-8.2661V62.81q-1.9152,3.69-7.4722,3.6894a11.7071,11.7071,0,0,1-5.0908-1.0273,7.54,7.54,0,0,1-3.2456-2.7788A7.36,7.36,0,0,1,117.6519,58.7a6.48,6.48,0,0,1,2.7553-5.5811q2.7554-1.9841,8.5-1.9848h5.044q-.2344-4.016-5.3711-4.0161a12.3369,12.3369,0,0,0-3.6895.5835,9.8349,9.8349,0,0,0-3.1753,1.6113l-2.9892-6.0244a16.5588,16.5588,0,0,1,5.1137-2.1719,24.3169,24.3169,0,0,1,6.0484-.77Q136.1928,40.3462,139.5088,43.2183Zm-7.2393,16.93a4.16,4.16,0,0,0,1.6817-2.1948V55.7578h-3.83q-3.8775,0-3.8765,2.5689a2.2593,2.2593,0,0,0,.8872,1.8681,3.8214,3.8214,0,0,0,2.4287.7A4.91,4.91,0,0,0,132.27,60.1479Z" transform="translate(-12.8379 -13.4993)"/><path class="cls-1" d="M162.438,33.3877h9.2471V58.7471h15.5986v7.332H162.438Z" transform="translate(-12.8379 -13.4993)"/><path class="cls-1" d="M190.37,36.61a4.5308,4.5308,0,0,1,0-6.7251,5.6177,5.6177,0,0,1,3.9234-1.3545,5.8113,5.8113,0,0,1,3.9228,1.2841,4.1477,4.1477,0,0,1,1.4946,3.2925,4.53,4.53,0,0,1-1.4946,3.48,6.3175,6.3175,0,0,1-7.8462.0235Zm-.5136,4.1562H198.73V66.0791H189.856Z" transform="translate(-12.8379 -13.4993)"/><path class="cls-1" d="M226.2222,41.9341a11.5826,11.5826,0,0,1,4.4834,4.5537,13.8858,13.8858,0,0,1,1.6577,6.8882,14.0171,14.0171,0,0,1-1.6577,6.9121,11.7026,11.7026,0,0,1-4.4834,4.6A12.4565,12.4565,0,0,1,219.9409,66.5q-4.998,0-7.4726-2.9424v2.522h-8.4532V31.4263h8.8736V42.9614a9.4336,9.4336,0,0,1,7.0522-2.6152A12.6056,12.6056,0,0,1,226.2222,41.9341Zm-4.32,15.9023a6.3077,6.3077,0,0,0,1.4942-4.46,6.1516,6.1516,0,0,0-1.4942-4.39,5.4118,5.4118,0,0,0-7.6591,0,6.1474,6.1474,0,0,0-1.4947,4.39,6.3034,6.3034,0,0,0,1.4947,4.46,5.3574,5.3574,0,0,0,7.6591,0Z" transform="translate(-12.8379 -13.4993)"/><path class="cls-1" d="M248.1392,41.21a13.3827,13.3827,0,0,1,4.9736-.8642v7.9863a18.079,18.079,0,0,0-2.0083-.14,5.5264,5.5264,0,0,0-6.0713,6.2578V66.0791H236.16V40.7666h8.4531v3.0356A8.263,8.263,0,0,1,248.1392,41.21Z" transform="translate(-12.8379 -13.4993)"/><path class="cls-1" d="M281.9512,55.6646h-18.4a5.1493,5.1493,0,0,0,2.1714,3.0122,7.25,7.25,0,0,0,4.04,1.0507,8.7433,8.7433,0,0,0,3.1524-.5136,9.3037,9.3037,0,0,0,2.685-1.6812l4.67,4.8569q-3.69,4.11-10.7881,4.11a17.2248,17.2248,0,0,1-7.7993-1.6811,12.78,12.78,0,0,1-.28-22.7911,15.9378,15.9378,0,0,1,14.0108-.1167,11.9113,11.9113,0,0,1,4.88,4.53,13.3022,13.3022,0,0,1,1.7978,7.0288Q282.0913,53.5635,281.9512,55.6646Zm-16.7891-7.8458a5.2692,5.2692,0,0,0-1.7515,3.1753h10.3677a5.2786,5.2786,0,0,0-1.7514-3.1753,5.6278,5.6278,0,0,0-6.8648,0Z" transform="translate(-12.8379 -13.4993)"/><path class="cls-1" d="M297.7505,41.21a13.3787,13.3787,0,0,1,4.9741-.8642v7.9863a18.1085,18.1085,0,0,0-2.0078-.14,5.5266,5.5266,0,0,0-6.0723,6.2578V66.0791H285.771V40.7666h8.4531v3.0356A8.2636,8.2636,0,0,1,297.7505,41.21Z" transform="translate(-12.8379 -13.4993)"/><path class="cls-1" d="M311.5781,30.6323h8.8731l-8.7793,7.0987H305.32ZM305.46,40.7666h8.874V66.0791H305.46Z" transform="translate(-12.8379 -13.4993)"/><path class="cls-1" d="M339.8652,43.2183q3.315,2.8725,3.3155,8.8037V66.0791H334.915V62.81q-1.916,3.69-7.4726,3.6894a11.704,11.704,0,0,1-5.0908-1.0273,7.5328,7.5328,0,0,1-3.2452-2.7788A7.3553,7.3553,0,0,1,318.0088,58.7a6.4808,6.4808,0,0,1,2.7549-5.5811q2.7554-1.9841,8.5-1.9848h5.0439q-.2343-4.016-5.3711-4.0161a12.3367,12.3367,0,0,0-3.6894.5835,9.8427,9.8427,0,0,0-3.1758,1.6113l-2.9883-6.0244a16.5469,16.5469,0,0,1,5.1133-2.1719,24.3151,24.3151,0,0,1,6.0478-.77Q336.5489,40.3462,339.8652,43.2183Zm-7.2392,16.93a4.1582,4.1582,0,0,0,1.6816-2.1948V55.7578h-3.83q-3.8759,0-3.8759,2.5689a2.26,2.26,0,0,0,.8877,1.8681,3.8183,3.8183,0,0,0,2.4287.7A4.9088,4.9088,0,0,0,332.626,60.1479Z" transform="translate(-12.8379 -13.4993)"/><path class="cls-2" d="M46.7954,13.4993A33.9575,33.9575,0,1,0,80.7529,47.4568,33.9575,33.9575,0,0,0,46.7954,13.4993ZM64.0322,67.891H33.1573V27.2667H44.6485V58.7793H64.0322Z" transform="translate(-12.8379 -13.4993)"/></svg>