<svg width="62" height="62" viewBox="0 0 62 62" fill="none" xmlns="http://www.w3.org/2000/svg">
<path d="M44.2708 38.9583H41.4729L40.4813 38.0021C43.9521 33.9646 46.0417 28.7229 46.0417 23.0208C46.0417 10.3062 35.7354 0 23.0208 0C10.3062 0 0 10.3062 0 23.0208C0 35.7354 10.3062 46.0417 23.0208 46.0417C28.7229 46.0417 33.9646 43.9521 38.0021 40.4813L38.9583 41.4729V44.2708L56.6667 61.9437L61.9437 56.6667L44.2708 38.9583ZM23.0208 38.9583C14.2021 38.9583 7.08333 31.8396 7.08333 23.0208C7.08333 14.2021 14.2021 7.08333 23.0208 7.08333C31.8396 7.08333 38.9583 14.2021 38.9583 23.0208C38.9583 31.8396 31.8396 38.9583 23.0208 38.9583Z" fill="white"/>
</svg>
